<?xml version="1.0" standalone="no"?>
<svg viewBox="0 0 200 200" xmlns="http://www.w3.org/2000/svg">
  <path fill="#FA4D56" d="M51.6,-70.6C65.2,-61.2,73.4,-43.8,75,-27.1C76.6,-10.4,71.6,5.6,65.6,20.4C59.5,35.2,52.4,48.7,41.3,59.7C30.2,70.7,15.1,79.2,-1.4,81.2C-17.9,83.1,-35.9,78.6,-48.3,68C-60.7,57.4,-67.5,40.8,-73.6,23.6C-79.7,6.3,-85.1,-11.5,-78.5,-23.5C-71.9,-35.5,-53.3,-41.7,-38.2,-50.7C-23.2,-59.7,-11.6,-71.5,3.7,-76.6C19,-81.7,38,-80.1,51.6,-70.6Z" transform="translate(100 100)" />
</svg>
