<?xml version="1.0" standalone="no"?>
<svg viewBox="0 0 200 200" xmlns="http://www.w3.org/2000/svg">
  <path fill="#FA4D56" d="M39.1,-48.9C51.2,-44.9,62.2,-34.3,63.4,-22.5C64.6,-10.7,56.1,2.4,53.7,19.8C51.3,37.2,55,59,47.1,65.4C39.1,71.8,19.6,62.9,1.9,60.3C-15.8,57.7,-31.6,61.5,-39.6,55.1C-47.5,48.7,-47.7,32.1,-53.1,16.9C-58.5,1.7,-69.2,-12.1,-66.4,-21.9C-63.7,-31.7,-47.5,-37.4,-34.2,-41C-20.9,-44.6,-10.4,-46.1,1.5,-48.2C13.4,-50.3,26.9,-52.9,39.1,-48.9Z" transform="translate(100 100)" />
</svg>
